<svg width="393" height="852" viewBox="0 0 393 852" fill="none" xmlns="http://www.w3.org/2000/svg">
<g opacity="0.5">
<path d="M196.507 0C304.959 0 393 96.8752 393 216.192V246.458C393 253.108 388.089 258.511 382.045 258.511H10.9547C4.91071 258.511 0 253.108 0 246.444V216.178C0 96.8752 88.0541 0 196.507 0Z" fill="white" fill-opacity="0.24"/>
<path d="M196.5 259C304.949 259 393 354.56 393 472.256V502.112C393 508.671 388.089 514 382.046 514H10.9543C4.91055 514 0 508.671 0 502.097V472.242C0 354.56 88.0512 259 196.5 259Z" fill="white" fill-opacity="0.24"/>
<path d="M149.054 514H243.946C326.217 514 393 586.951 393 676.789V688.924C393 693.931 389.275 698 384.69 698H8.31043C3.72537 698 0 693.931 0 688.924V676.789C0 586.951 66.7961 514 149.054 514Z" fill="white" fill-opacity="0.24"/>
<path d="M64.0867 698H328.913C364.278 698 393 727.738 393 764.355V769.305C393 771.341 391.398 773 389.431 773H3.56906C1.60217 773 0 771.341 0 769.291V764.342C0 727.725 28.7218 698 64.0867 698Z" fill="white" fill-opacity="0.24"/>
<path d="M64.0867 773H328.913C364.278 773 393 804.324 393 842.894V848.107C393 850.253 391.398 852 389.431 852H3.56906C1.60217 852 0 850.253 0 848.107V842.894C0 804.324 28.7218 773 64.0867 773Z" fill="white" fill-opacity="0.24"/>
</g>
</svg>
